<?xml version="1.0" encoding="utf-8"?>
<!-- Generator: Adobe Illustrator 22.0.0, SVG Export Plug-In . SVG Version: 6.00 Build 0)  -->
<svg version="1.1" id="图层_1" xmlns="http://www.w3.org/2000/svg" xmlns:xlink="http://www.w3.org/1999/xlink" x="0px" y="0px"
	 viewBox="0 0 612 792" style="enable-background:new 0 0 612 792;" xml:space="preserve">
<style type="text/css">
	.st0{fill:url(#SVGID_1_);}
	.st1{fill:#FFC670;}
	.st2{fill:url(#SVGID_2_);}
	.st3{fill:#FFA742;}
	.st4{fill:#EDF4FF;}
	.st5{fill:#3D3D63;}
</style>
<linearGradient id="SVGID_1_" gradientUnits="userSpaceOnUse" x1="8.443" y1="398.8761" x2="603.5834" y2="398.8761">
	<stop  offset="0" style="stop-color:#EDC694"/>
	<stop  offset="1" style="stop-color:#BD8D5E;stop-opacity:0.79"/>
</linearGradient>
<path class="st0" d="M588.7,308.1c-1.9-5.6-7.3-9.2-13.3-8.9H36.7c-6-0.3-11.5,3.4-13.3,8.9c-20,58.9-20,122.5,0,181.5
	c1.9,5.6,7.3,9.2,13.3,8.9h410.5c3.5,0,6.9-1.4,9.4-3.8c2.5-2.4,3.9-5.7,3.9-9.2v-32.4c0.1-23.5,17.8-43.4,41.6-47
	c23.9-3.5,46.8,10.4,54.1,32.8c1.5,4.7,5.6,8.1,10.5,8.9c5.4,0.8,10.7,2.2,15.8,4c3.8,1.2,7.9,0.8,11.3-1.3c3.4-2,5.8-5.4,6.4-9.2
	c2.2-14.1,3.3-28.4,3.3-42.6C603.6,368.1,598.5,337.4,588.7,308.1L588.7,308.1z M588.7,308.1"/>
<path class="st1" d="M176.2,396.5c0,46.2,24.7,89,64.7,112.1c40,23.1,89.4,23.1,129.4,0c40-23.1,64.7-65.9,64.7-112.1
	c0-71.5-57.9-129.4-129.4-129.4C234.2,267.1,176.2,325,176.2,396.5L176.2,396.5z M176.2,396.5"/>
<linearGradient id="SVGID_2_" gradientUnits="userSpaceOnUse" x1="404.23" y1="633.1232" x2="513.457" y2="633.1232">
	<stop  offset="0" style="stop-color:#EDC694"/>
	<stop  offset="1" style="stop-color:#BD8D5E;stop-opacity:0.79"/>
</linearGradient>
<path class="st2" d="M404.2,633.1c0,19.5,10.4,37.5,27.3,47.3c16.9,9.8,37.7,9.8,54.6,0c16.9-9.8,27.3-27.8,27.3-47.3
	c0-19.5-10.4-37.5-27.3-47.3c-16.9-9.8-37.7-9.8-54.6,0C414.6,595.6,404.2,613.6,404.2,633.1L404.2,633.1z M404.2,633.1"/>
<path class="st3" d="M305.7,458c-52.9-0.2-101.8-28.1-128.8-73.6c-0.4,4-0.7,8.1-0.7,12.2c0,71.6,58.1,129.7,129.7,129.7
	c71.6,0,129.7-58.1,129.7-129.7c0.2-4,0.2-8.1,0-12.2C408.4,430.2,359,458.2,305.7,458L305.7,458z M305.7,458"/>
<path class="st4" d="M352.8,396l-63.1-36.3c-2.8-1.7-6.3-1.7-9.1-0.1c-2.8,1.6-4.6,4.6-4.6,7.9v72.9c0,3.3,1.7,6.3,4.6,7.9
	c2.8,1.6,6.3,1.6,9.1-0.1l63.1-36.3c2.8-1.6,4.6-4.7,4.6-7.9C357.4,400.6,355.6,397.6,352.8,396L352.8,396z M352.8,396"/>
<path class="st5" d="M343.1,679.2c-12.2,1.5-24.5,2.3-36.9,2.3c-112.8-0.1-214.4-68.4-257-172.9H209c54.7,51.1,139.7,51.1,194.4,0
	H453c7.5,0,13.6-6.1,13.6-13.7s-6.1-13.6-13.6-13.7h-27.3c15.2-23,23.4-49.9,23.6-77.4c-0.1-7.6-0.7-15.3-2-22.8h71.8
	c7.5,0,13.7-6.1,13.7-13.7c0-7.5-6.1-13.7-13.7-13.7h-79.1c-3.6-9.6-8.2-18.7-13.7-27.3h146.2c7.4,25.1,11.2,51.2,11.2,77.4
	c0,14.5-1.1,29-3.3,43.3c-0.6,3.6,0.3,7.3,2.4,10.2c2.1,2.9,5.3,4.9,8.9,5.5c3.6,0.5,7.2-0.4,10.2-2.5c2.9-2.2,4.9-5.4,5.4-9
	c20.1-129.4-45-257.1-161.4-317C329.6,74.5,187.8,95.9,94.3,187.5c-93.6,91.6-118,232.8-60.6,350.6
	c57.4,117.7,183.7,185.4,313.5,168.1c7.5-1,12.9-7.9,11.9-15.4c-1-7.5-7.9-12.9-15.4-11.9L343.1,679.2z M28.7,403.9
	c0-26.2,3.8-52.3,11.2-77.4h146.2c-5.5,8.6-10.1,17.8-13.7,27.3h-41.6c-7.5,0-13.7,6.1-13.7,13.7c0,7.5,6.1,13.7,13.7,13.7h34.4
	c-1.3,7.5-2,15.2-2,22.8c0,27.5,8,54.4,22.9,77.4H39.9C32.5,456.2,28.7,430.1,28.7,403.9L28.7,403.9z M190.5,403.9
	c0-63.9,51.8-115.8,115.8-115.8c63.9,0,115.8,51.8,115.8,115.8c0,63.9-51.8,115.8-115.8,115.8C242.4,519.5,190.6,467.8,190.5,403.9
	L190.5,403.9z M306.3,126.3c112.8,0.1,214.4,68.4,257,172.8H403.5c-54.7-51.1-139.7-51.1-194.4,0H49.3
	C91.9,194.7,193.4,126.4,306.3,126.3L306.3,126.3z M306.3,126.3"/>
<path class="st5" d="M80.1,346.4H65.4c-4.9,0-9.4,2.6-11.8,6.8c-2.4,4.2-2.4,9.4,0,13.7c2.4,4.2,6.9,6.8,11.8,6.8h14.7
	c4.9,0,9.4-2.6,11.8-6.8c2.4-4.2,2.4-9.4,0-13.7C89.5,349,85,346.4,80.1,346.4L80.1,346.4z M359,376.9L296,340.4c-7-4-15.7-4-22.7,0
	c-7,4-11.4,11.5-11.4,19.6V433c0,8.1,4.3,15.7,11.4,19.8c7.1,4.1,15.8,4,22.8-0.1l63.1-36.5c7.1-4,11.5-11.5,11.5-19.7
	C370.6,388.4,366.2,380.8,359,376.9L359,376.9z M289.1,425V368l49.4,28.5L289.1,425z M555.2,486.1c-7.5,0-14.6-3-19.9-8.2
	c-5.3-5.3-8.2-12.4-8.2-19.9c0-7.5-6.1-13.7-13.7-13.7c-7.5,0-13.7,6.1-13.7,13.7v121c-11.8-8.9-26.2-13.7-41-13.7
	c-37.7,0-68.3,30.6-68.3,68.3c0,37.7,30.6,68.3,68.3,68.3c37.7,0,68.3-30.6,68.3-68.3V505.7c8.5,5.1,18.2,7.9,28.1,7.9
	c14.9,0.4,26.9,12.4,27.3,27.3c0,7.5,6.1,13.6,13.7,13.6c7.5,0,13.7-6.1,13.7-13.6C609.6,510.9,585.3,486.5,555.2,486.1L555.2,486.1
	z M458.8,674.1c-22.6,0-41-18.3-41-41c0-22.6,18.3-41,41-41c22.6,0,41,18.3,41,41c0,10.9-4.3,21.3-12,29
	C480.1,669.8,469.7,674.1,458.8,674.1L458.8,674.1z M458.8,674.1"/>
</svg>
